<?xml version="1.0" encoding="utf-8"?>
<!-- Generator: Adobe Illustrator 26.0.0, SVG Export Plug-In . SVG Version: 6.00 Build 0)  -->
<svg version="1.1" id="Capa_1" xmlns="http://www.w3.org/2000/svg" xmlns:xlink="http://www.w3.org/1999/xlink" x="0px" y="0px"
	 viewBox="0 0 100 100" style="enable-background:new 0 0 100 100;" xml:space="preserve">
<style type="text/css">
	.st0{fill:#456AB2;}
</style>
<g>
	<path class="st0" d="M50.82,58.41c-3.11-0.05-4.66-2.4-6.65-4.24c-4.35,4.45-8.62,8.81-13.04,13.33c13.23,0,26.2,0,39.45,0
		c-4.44-4.54-8.68-8.88-12.96-13.25C55.6,56.2,53.96,58.45,50.82,58.41z"/>
	<path class="st0" d="M48.85,53.64c1.48,1.5,2.73,1.49,4.21,0c5.67-5.7,11.33-11.41,17-17.11c0.22-0.22,0.41-0.48,0.69-0.8
		c-13.21,0-26.26,0-39.55,0c0.37,0.4,0.57,0.64,0.78,0.85C37.6,42.26,43.22,47.95,48.85,53.64z"/>
	<path class="st0" d="M73.13,64.84c0-8.85,0-17.42,0-26c-4.32,4.25-8.59,8.47-12.95,12.76C64.54,56.05,68.77,60.38,73.13,64.84z"/>
	<path class="st0" d="M28.62,38.88c0,8.41,0,17.07,0,25.93c4.4-4.49,8.65-8.84,13.08-13.36C37.22,47.15,32.85,42.95,28.62,38.88z"/>
	<path class="st0" d="M49.94,1.29c-26.93,0-48.76,21.83-48.76,48.76s21.83,48.76,48.76,48.76S98.7,76.98,98.7,50.05
		S76.87,1.29,49.94,1.29z M76.79,71.09c-17.26,0-34.51,0-51.83,0c0-12.97,0-25.95,0-39c17.33,0,34.55,0,51.83,0
		C76.79,45.1,76.79,58.05,76.79,71.09z"/>
</g>
</svg>
