<?xml version="1.0" encoding="utf-8"?>
<!-- Generator: Adobe Illustrator 26.0.0, SVG Export Plug-In . SVG Version: 6.00 Build 0)  -->
<svg version="1.1" id="Capa_1" xmlns="http://www.w3.org/2000/svg" xmlns:xlink="http://www.w3.org/1999/xlink" x="0px" y="0px"
	 viewBox="0 0 100 100" style="enable-background:new 0 0 100 100;" xml:space="preserve">
<style type="text/css">
	.st0{fill:#456AB2;}
</style>
<path class="st0" d="M49.94,1.29c-26.93,0-48.76,21.83-48.76,48.76s21.83,48.76,48.76,48.76S98.7,76.98,98.7,50.05
	S76.87,1.29,49.94,1.29z M74.11,63.75c-0.39,4.92-3.66,8.34-8.6,9.37c-2.61,0.54-5.09,0.31-7.64-0.46
	c-11.18-3.37-19.75-10.11-26.08-19.84c-2.29-3.53-4.66-7.02-5.47-11.26c-0.2-1.05-0.29-2.13-0.43-3.2c0.09-4.2,1.75-7.65,4.85-10.41
	c1.36-1.21,5.29-1.72,6.73-0.77c0.53,0.35,0.95,1.03,1.19,1.65c1.24,3.16,2.45,6.33,3.55,9.54c0.21,0.62,0.12,1.57-0.23,2.11
	c-0.88,1.34-1.93,2.59-3.02,3.76c-0.82,0.87-1.02,1.65-0.43,2.73c3.71,6.76,9.02,11.76,16.1,14.85c0.99,0.43,1.77,0.26,2.46-0.53
	c1.21-1.38,2.48-2.7,3.6-4.15c0.83-1.07,1.73-1.42,2.93-0.8c3.2,1.67,6.43,3.29,9.55,5.11C73.76,61.8,74.17,63,74.11,63.75z"/>
<polygon class="st0" points="12.97,81.83 6.16,96.52 23.09,90.75 "/>
</svg>
