<?xml version="1.0" encoding="utf-8"?>
<!-- Generator: Adobe Illustrator 26.0.0, SVG Export Plug-In . SVG Version: 6.00 Build 0)  -->
<svg version="1.1" xmlns="http://www.w3.org/2000/svg" xmlns:xlink="http://www.w3.org/1999/xlink" x="0px" y="0px"
	 viewBox="0 0 100 100" style="enable-background:new 0 0 100 100;" xml:space="preserve">
<style type="text/css">
	.st0{fill:#456AB2;}
</style>
<g id="Capa_1">
</g>
<g id="Capa_2">
	<path class="st0" d="M50.9,1.3C24,1.3,2.2,23.1,2.2,50S24,98.8,50.9,98.8S99.7,77,99.7,50S77.9,1.3,50.9,1.3z M30.8,59.8
		c9-9,18.1-18.1,27.1-27.1c0.5-0.5,0.9-0.6,1.5-0.2c0.9,0.5,1.8,1,2.9,1.6c-2.9,2.8-5.6,5.6-8.3,8.3C48.3,48,42.6,53.7,36.8,59.4
		C36.5,59.7,36,60,35.6,60c-1.7,0.2-3.4,0.3-5.4,0.5C30.5,60.2,30.6,60,30.8,59.8z M31,75.8c-1.3,0.5-2.7,0.9-4.1,1.3
		c-0.1,0-0.3,0.1-0.4,0.1c-0.5,0-1.2,0.2-1.5-0.1c-0.2-0.2-0.2-1,0-1.4c1-3.2,2.1-6.3,3.2-9.4c0-0.1,0.1-0.2,0.2-0.4
		c2.2,3.2,4.8,5.8,8,8C34.5,74.6,32.8,75.2,31,75.8z M70,44c-9.3,9.3-18.6,18.6-27.9,27.9c0,0-0.1,0-0.2,0.1
		c0.2-1.9,0.3-3.8,0.5-5.7c0-0.3,0.3-0.5,0.6-0.8c8.2-8.2,16.4-16.4,24.6-24.6c0.2-0.2,0.4-0.4,0.6-0.7c-0.1-0.1-0.1-0.1-0.2-0.2
		c-0.2,0.2-0.5,0.5-0.7,0.7C59.1,48.8,51,56.9,42.9,65.1c-0.4,0.4-0.9,0.6-1.4,0.7c-1.5,0.2-3.1,0.4-4.7,0.5c-0.2,0-0.5,0-0.8,0
		c0.2-2,0.4-3.9,0.6-5.9c0-0.3,0.3-0.6,0.5-0.8c4.3-4.3,8.6-8.6,12.9-12.9c4.2-4.1,8.3-8.3,12.5-12.5c3.2,2.3,5.8,5.1,7.7,8.6
		C70.4,43.4,70.4,43.7,70,44z M76.8,37.2c-1.8,1.8-3.6,3.6-5.4,5.4c-0.1,0.1-0.1,0.1-0.2,0.1c-1.3-2.6-3-4.8-5.1-6.8
		c-1.7-1.6-3.6-3-5.7-4.1c-0.8-0.4-0.8-0.8-0.2-1.4c1.6-1.6,3.1-3.1,4.7-4.7c0.4-0.4,0.6-0.4,1.1-0.2c3.7,1.8,6.7,4.4,9.1,7.6
		c0.7,1,1.3,2,1.9,3.1C77,36.6,76.9,37,76.8,37.2z"/>
</g>
</svg>
