<?xml version="1.0" encoding="utf-8"?>
<!-- Generator: Adobe Illustrator 26.0.0, SVG Export Plug-In . SVG Version: 6.00 Build 0)  -->
<svg version="1.1" xmlns="http://www.w3.org/2000/svg" xmlns:xlink="http://www.w3.org/1999/xlink" x="0px" y="0px"
	 viewBox="0 0 100 100" style="enable-background:new 0 0 100 100;" xml:space="preserve">
<style type="text/css">
	.st0{fill:#456AB2;}
</style>
<g id="Capa_1">
</g>
<g id="Capa_2">
	<g>
		<path class="st0" d="M49,79.6c0.1,0.4,0.3,0.6,0.7,0.7c0.7,0.2,1.3-0.3,1.3-1c0-5.3,0-10.7,0-16c0-2.9,0-5.8,0-8.6
			c0-2.5,0-5,0-7.4c0-0.4-0.2-0.7-0.5-0.9c-0.4-0.2-0.8-0.1-1.1,0.1C49.1,46.7,49,47,49,47.4c0,10.6,0,21.3,0,31.9
			C49,79.4,49,79.5,49,79.6z"/>
		<path class="st0" d="M39.6,53.3c0.2,1.8,0.4,3.6,0.5,5.3c0.2,1.8,0.4,3.5,0.5,5.3c0.2,1.8,0.4,3.5,0.5,5.3
			c0.2,1.6,0.3,3.3,0.5,4.9c0.2,1.8,0.3,3.5,0.5,5.3c0,0.2,0.1,0.3,0.2,0.5c0.2,0.3,0.5,0.3,0.9,0.3c0.5-0.1,0.8-0.4,0.8-0.9
			c-0.1-1.5-0.3-3-0.5-4.5c-0.2-1.7-0.3-3.3-0.5-5c-0.2-1.6-0.3-3.2-0.5-4.8c-0.2-1.6-0.3-3.3-0.5-4.9c-0.1-1.5-0.3-3-0.4-4.5
			c-0.2-1.6-0.3-3.3-0.5-4.9c-0.1-0.9-0.2-1.8-0.3-2.7c0-0.2-0.1-0.4-0.2-0.5c-0.3-0.3-0.8-0.3-1.2-0.2c-0.4,0.1-0.5,0.4-0.5,0.8
			c0,0.1,0,0.2,0,0.3C39.3,50.1,39.4,51.7,39.6,53.3z"/>
		<path class="st0" d="M57.2,80.2c0.6,0,1-0.3,1.1-0.8c0.1-1.2,0.2-2.3,0.3-3.5c0.1-1.5,0.2-3,0.4-4.5c0.1-1.7,0.3-3.3,0.4-5
			c0.1-1.3,0.2-2.7,0.3-4c0.1-1.7,0.3-3.4,0.4-5c0.2-1.9,0.3-3.7,0.5-5.6c0.1-1.3,0.2-2.6,0.3-3.9c0-0.5-0.4-0.9-0.9-0.9
			c-0.6,0-1,0.3-1.1,0.8c-0.1,0.9-0.1,1.8-0.2,2.7c-0.1,1.5-0.2,3-0.4,4.5c-0.1,1.1-0.2,2.3-0.3,3.4c-0.1,1.8-0.3,3.7-0.5,5.5
			c-0.1,1.5-0.2,3-0.4,4.5c-0.1,1.5-0.3,3.1-0.4,4.6c-0.1,1.3-0.2,2.6-0.3,3.9c-0.1,0.8-0.1,1.6-0.2,2.4
			C56.3,79.8,56.7,80.1,57.2,80.2z"/>
		<path class="st0" d="M56.7,29.5c0.6-1,0.2-2.1-0.9-2.6c-0.3-0.1-0.5-0.3-0.8-0.4c-1-0.5-2.2-0.1-2.7,0.8c0,0.1-0.1,0.1-0.1,0.2
			c1.1,0.5,2.2,1.1,3.2,1.6c0.4,0.2,0.8,0.4,1.2,0.6C56.6,29.7,56.7,29.6,56.7,29.5z"/>
		<path class="st0" d="M49.9,1.3C23,1.3,1.2,23.1,1.2,50S23,98.8,49.9,98.8S98.7,77,98.7,50S76.9,1.3,49.9,1.3z M67.3,44.1
			c-0.2,1.6-0.4,3.3-0.5,4.9c-0.2,1.8-0.4,3.5-0.6,5.3c-0.2,1.6-0.4,3.3-0.5,4.9c-0.2,1.8-0.4,3.5-0.6,5.3c-0.1,1.3-0.3,2.7-0.4,4
			c-0.2,1.8-0.4,3.5-0.6,5.3c-0.2,1.6-0.4,3.3-0.5,4.9c-0.1,0.8-0.1,1.7-0.3,2.5c-0.4,1.9-2.2,3.3-4.3,3.3c-5.9,0-11.8,0-17.8,0
			c-2.1,0-4-1.6-4.3-3.5c-0.2-1.2-0.3-2.5-0.4-3.7c-0.2-1.6-0.4-3.3-0.5-4.9c-0.2-1.8-0.4-3.5-0.6-5.3c-0.2-1.8-0.4-3.5-0.6-5.3
			c-0.2-1.7-0.4-3.5-0.6-5.2c-0.2-1.6-0.4-3.3-0.5-4.9c-0.2-1.8-0.4-3.5-0.6-5.3c-0.1-1.1-0.2-2.2-0.4-3.3c0-0.1,0-0.1,0-0.2
			c11.6,0,23.2,0,34.8,0C67.4,43.4,67.3,43.8,67.3,44.1z M70.3,42.6c-13.1,0-26.2,0-39.3,0c-0.5,0-0.9,0-1.4,0c-1.2,0-2.1-0.9-2.1-2
			c0-1.1,1-2,2.1-2c8.2,0,16.4,0,24.6,0c3.2,0,6.3,0,9.5,0c0.1,0,0.1,0,0.2,0c0,0,0,0,0,0c-9.3-4.6-18.6-9.2-27.9-13.7
			c0.6-1.1,1.5-1.8,2.7-2.2c1.4-0.5,2.7-0.4,4,0.3c2.5,1.2,5,2.5,7.5,3.7c0.2-0.4,0.5-0.8,0.7-1.2c0.5-0.8,1.2-1.2,2.1-1.4
			c0.7-0.1,1.3,0,1.9,0.2c1,0.5,1.9,0.9,2.9,1.4c1.4,0.7,2,2.2,1.4,3.6c-0.2,0.5-0.5,0.9-0.8,1.4c1.7,0.8,3.5,1.7,5.2,2.5
			c2,1,3,3.2,2.3,5.2c0,0.1,0,0.2-0.1,0.3c0.1,0,0.2,0,0.3,0c1.4,0,2.7,0,4.1,0c1.2,0,2.2,0.9,2.2,2C72.5,41.7,71.5,42.6,70.3,42.6z
			"/>
	</g>
</g>
</svg>
