<?xml version="1.0" encoding="utf-8"?>
<!-- Generator: Adobe Illustrator 26.0.0, SVG Export Plug-In . SVG Version: 6.00 Build 0)  -->
<svg version="1.1" xmlns="http://www.w3.org/2000/svg" xmlns:xlink="http://www.w3.org/1999/xlink" x="0px" y="0px"
	 viewBox="0 0 283.46 283.46" style="enable-background:new 0 0 283.46 283.46;" xml:space="preserve">
<style type="text/css">
	.st0{opacity:0.05;stroke:#000000;stroke-miterlimit:10;}
	.st1{opacity:0.02;stroke:#000000;stroke-miterlimit:10;}
	.st2{opacity:0.1;stroke:#000000;stroke-miterlimit:10;}
	.st3{opacity:0.1;fill:none;stroke:#000000;stroke-width:4;stroke-miterlimit:10;}
	.st4{opacity:0.1;}
</style>
<g id="Capa_1">
	<polygon class="st0" points="85.94,58.17 61.55,64.11 50.99,86.88 62.2,109.34 86.76,114.57 106.16,98.64 105.79,73.54 	"/>
	<polygon class="st0" points="92,93.75 75.99,97.65 69.06,112.59 76.42,127.33 92.54,130.77 105.27,120.31 105.03,103.84 	"/>
	<polygon class="st0" points="106.98,36.35 91.09,44.01 87.16,61.21 98.16,75 115.8,75 126.8,61.21 122.88,44.01 	"/>
	<polygon class="st0" points="108.12,77.35 98.7,81.88 96.37,92.08 102.89,100.25 113.35,100.25 119.87,92.08 117.54,81.88 	"/>
	<polygon class="st0" points="163.9,67.47 142.51,88.61 145.69,118.52 171.06,134.68 199.52,124.91 209.62,96.58 193.77,71.02 	"/>
	<polygon class="st0" points="112.08,31.46 103.78,55.16 117.14,76.41 142.09,79.22 159.84,61.47 157.03,36.53 135.77,23.17 	"/>
	<polygon class="st0" points="148.39,98.5 120.43,102.68 106.26,127.15 116.56,153.49 143.57,161.85 166.95,145.95 169.1,117.75 	
		"/>
	<polygon class="st1" points="156.76,62.08 138.07,63.55 127.56,79.08 133.14,96.98 150.62,103.77 166.83,94.34 169.57,75.79 	"/>
	<polygon class="st0" points="200.33,117.45 192.79,120.56 190.51,128.4 195.22,135.06 203.37,135.53 208.81,129.46 207.46,121.41 	
		"/>
	<polygon class="st0" points="189.21,54.91 177.12,55.85 170.32,65.9 173.93,77.48 185.24,81.87 195.72,75.77 197.49,63.77 	"/>
	<polygon class="st0" points="64.9,131.78 68.77,129.92 69.72,125.74 67.05,122.38 62.75,122.38 60.08,125.74 61.03,129.92 	"/>
	<polygon class="st2" points="205.72,79.64 210.49,77.35 211.66,72.2 208.37,68.06 203.08,68.06 199.78,72.2 200.96,77.35 	"/>
	<polygon class="st0" points="175.66,24.87 157.51,23.51 145.13,36.85 147.84,54.85 163.61,63.96 180.55,57.31 185.92,39.91 	"/>
	<polygon class="st2" points="101.75,170.13 108.12,167.95 110.38,161.61 106.84,155.89 100.15,155.09 95.36,159.82 96.07,166.52 	
		"/>
	<polygon class="st0" points="182.08,155.28 185.37,151.14 184.2,145.99 179.44,143.7 174.67,145.99 173.5,151.14 176.79,155.28 	
		"/>
</g>
<g id="Capa_2">
	<polygon class="st3" points="138.24,67.9 114,79.58 108.01,105.8 124.79,126.84 151.69,126.84 168.46,105.8 162.48,79.58 	"/>
	<g>
		<g class="st4">
			<path d="M125.87,105.72c-0.24,0-0.44-0.06-0.6-0.19c-0.16-0.12-0.24-0.28-0.24-0.47V91.47c0-0.19,0.08-0.35,0.24-0.47
				s0.36-0.19,0.6-0.19h1.64c0.24,0,0.44,0.06,0.6,0.19c0.16,0.12,0.24,0.28,0.24,0.47v1c0.56-0.59,1.26-1.07,2.11-1.42
				c0.85-0.35,1.87-0.53,3.06-0.53c2.74-0.02,4.68,0.86,5.82,2.64c0.56-0.8,1.37-1.44,2.44-1.92c1.07-0.48,2.28-0.72,3.64-0.72
				c1.26,0,2.41,0.23,3.44,0.69c1.03,0.46,1.84,1.15,2.44,2.08c0.59,0.93,0.89,2.09,0.89,3.48v8.29c0,0.19-0.08,0.35-0.24,0.47
				c-0.16,0.12-0.36,0.19-0.6,0.19h-1.71c-0.24,0-0.44-0.06-0.6-0.19c-0.16-0.12-0.24-0.28-0.24-0.47v-8.03
				c0-1.07-0.2-1.91-0.58-2.52c-0.39-0.61-0.91-1.04-1.56-1.29c-0.65-0.25-1.37-0.37-2.15-0.37c-0.63,0-1.27,0.12-1.93,0.37
				c-0.65,0.25-1.19,0.68-1.62,1.29c-0.42,0.61-0.64,1.45-0.64,2.52v8.03c0,0.19-0.08,0.35-0.24,0.47c-0.16,0.12-0.36,0.19-0.6,0.19
				h-1.71c-0.24,0-0.44-0.06-0.6-0.19c-0.16-0.12-0.24-0.28-0.24-0.47v-8.03c0-1.07-0.21-1.91-0.62-2.52
				c-0.41-0.61-0.95-1.04-1.6-1.29c-0.65-0.25-1.35-0.37-2.07-0.37c-0.63,0-1.27,0.12-1.93,0.37c-0.65,0.25-1.19,0.68-1.62,1.29
				c-0.42,0.61-0.64,1.44-0.64,2.5v8.06c0,0.19-0.08,0.35-0.24,0.47c-0.16,0.12-0.36,0.19-0.6,0.19H125.87z"/>
		</g>
	</g>
</g>
</svg>
