<?xml version="1.0" encoding="utf-8"?>
<!-- Generator: Adobe Illustrator 26.0.0, SVG Export Plug-In . SVG Version: 6.00 Build 0)  -->
<svg version="1.1" id="Capa_1" xmlns="http://www.w3.org/2000/svg" xmlns:xlink="http://www.w3.org/1999/xlink" x="0px" y="0px"
	 viewBox="0 0 100 100" style="enable-background:new 0 0 100 100;" xml:space="preserve">
<style type="text/css">
	.st0{fill:#456AB2;}
</style>
<path class="st0" d="M49.94,1.29c-26.93,0-48.76,21.83-48.76,48.76c0,22.71,15.53,41.8,36.55,47.22c0.13-0.38,0.21-0.83,0.21-1.35
	c-0.02-2.49-0.05-4.98-0.08-7.48c0-0.23-0.05-0.46-0.05-0.43c-2.31,0-4.52,0.08-6.72-0.02c-2.6-0.11-5.02-0.8-7.03-2.61
	c-1.26-1.14-1.84-2.65-2.51-4.14c-1.14-2.49-2.53-4.77-5.01-6.2c-0.56-0.32-0.99-0.91-1.4-1.44c-0.45-0.57-0.23-1.07,0.44-1.11
	c0.99-0.06,2.05-0.13,2.98,0.15c2.58,0.77,4.5,2.45,5.87,4.77c0.87,1.48,1.95,2.78,3.42,3.68c3.25,1.98,6.55,1.33,9.83,0.1
	c0.21-0.08,0.39-0.46,0.44-0.72c0.35-2.09,1.17-3.93,2.65-5.47c0.05-0.05,0.03-0.16,0.01-0.02c-2.87-0.72-5.76-1.22-8.49-2.19
	c-4.35-1.54-7.94-4.15-10.06-8.44c-1.53-3.1-2.33-6.39-2.63-9.82c-0.49-5.66,0.44-10.91,4.33-15.34c0.19-0.22,0.3-0.68,0.21-0.95
	c-1.19-3.39-1.01-6.77-0.01-10.15c0.62-2.1,1.01-2.35,3.18-1.9c0.06,0.01,0.12,0.03,0.18,0.05c3.45,0.91,6.62,2.42,9.62,4.34
	c0.39,0.25,1,0.39,1.43,0.28c7.4-1.86,14.78-1.87,22.18,0c0.41,0.1,0.96-0.03,1.36-0.23c2.36-1.18,4.66-2.47,7.05-3.6
	c1.47-0.69,3.05-1.17,4.73-0.92c0.25,0.04,0.61,0.23,0.69,0.44c1.42,3.68,1.96,7.43,0.69,11.26c-0.23,0.71-0.14,1.15,0.33,1.7
	c1.93,2.23,3.18,4.81,3.79,7.69c0.61,2.87,0.51,5.75,0.17,8.63c-0.43,3.7-1.42,7.26-3.58,10.35c-2.94,4.21-7.25,6.34-12.07,7.57
	c-1.8,0.46-3.65,0.7-5.49,1.05c0.47,0.63,0.98,1.2,1.38,1.85c1.37,2.2,1.62,4.68,1.64,7.19c0.02,4.12-0.01,8.25,0.01,12.37
	c0,0.46,0.09,0.84,0.21,1.19C82.9,92.17,98.7,72.96,98.7,50.05C98.7,23.12,76.87,1.29,49.94,1.29z"/>
</svg>
