<?xml version="1.0" encoding="utf-8"?>
<!-- Generator: Adobe Illustrator 26.0.0, SVG Export Plug-In . SVG Version: 6.00 Build 0)  -->
<svg version="1.1" id="Capa_1" xmlns="http://www.w3.org/2000/svg" xmlns:xlink="http://www.w3.org/1999/xlink" x="0px" y="0px"
	 viewBox="0 0 100 100" style="enable-background:new 0 0 100 100;" xml:space="preserve">
<style type="text/css">
	.st0{fill:#456AB2;}
</style>
<path class="st0" d="M49.94,1.29c-26.93,0-48.76,21.83-48.76,48.76s21.83,48.76,48.76,48.76S98.7,76.98,98.7,50.05
	S76.87,1.29,49.94,1.29z M37.89,71.43c-2.93,0-5.59,0-8.46,0c0-9.49,0-18.86,0-28.44c2.77,0,5.51,0,8.46,0
	C37.89,52.42,37.89,61.93,37.89,71.43z M33.62,39.14c-2.6-0.03-5.04-2.51-5.12-5.21c-0.09-2.83,2.35-5.36,5.18-5.36
	c2.71-0.01,5.09,2.39,5.11,5.13C38.82,36.54,36.31,39.17,33.62,39.14z M71.48,71.38c-3.21,0-5.94,0-9.07,0
	c0-5.59,0.14-11.01-0.04-16.43c-0.14-4.24-4.01-6.47-7.17-4.03c-1.32,1.02-2.15,3.31-2.31,5.1c-0.35,3.94-0.13,7.92-0.13,11.89
	c0,1.07,0,2.14,0,3.42c-3.08,0-5.88,0-8.81,0c0-9.51,0-18.87,0-28.4c2.81,0,5.45,0,8.25,0c0.09,0.97,0.18,1.9,0.31,3.19
	c2.64-2.75,5.53-4.05,9.15-3.84c5.46,0.31,8.74,2.86,9.4,8.42c0.5,4.21,0.33,8.51,0.42,12.77C71.52,66.03,71.48,68.59,71.48,71.38z"
	/>
</svg>
