<?xml version="1.0" encoding="utf-8"?>
<!-- Generator: Adobe Illustrator 26.0.0, SVG Export Plug-In . SVG Version: 6.00 Build 0)  -->
<svg version="1.1" id="Capa_1" xmlns="http://www.w3.org/2000/svg" xmlns:xlink="http://www.w3.org/1999/xlink" x="0px" y="0px"
	 viewBox="0 0 28.35 28.35" style="enable-background:new 0 0 28.35 28.35;" xml:space="preserve">
<style type="text/css">
	.st0{fill:none;stroke:#000000;stroke-miterlimit:10;}
</style>
<polygon class="st0" points="14.17,1.01 3.88,5.97 1.34,17.1 8.46,26.03 19.88,26.03 27,17.1 24.46,5.97 "/>
<g>
	<g>
		<path d="M8.45,18.04c-0.11,0-0.19-0.03-0.26-0.08s-0.1-0.12-0.1-0.21v-5.98c0-0.08,0.03-0.15,0.1-0.21
			c0.07-0.05,0.16-0.08,0.26-0.08h0.72c0.11,0,0.19,0.03,0.26,0.08c0.07,0.05,0.1,0.12,0.1,0.21v0.44c0.25-0.26,0.55-0.47,0.93-0.62
			c0.37-0.16,0.82-0.23,1.34-0.23c1.2-0.01,2.06,0.38,2.56,1.16c0.25-0.35,0.6-0.63,1.07-0.84c0.47-0.21,1-0.32,1.6-0.32
			c0.55,0,1.06,0.1,1.51,0.3s0.81,0.51,1.07,0.91c0.26,0.41,0.39,0.92,0.39,1.53v3.64c0,0.08-0.04,0.15-0.1,0.21
			c-0.07,0.05-0.16,0.08-0.26,0.08h-0.75c-0.11,0-0.2-0.03-0.26-0.08c-0.07-0.05-0.1-0.12-0.1-0.21v-3.53
			c0-0.47-0.09-0.84-0.26-1.11c-0.17-0.27-0.4-0.46-0.69-0.57c-0.29-0.11-0.6-0.16-0.94-0.16c-0.28,0-0.56,0.06-0.85,0.16
			c-0.29,0.11-0.53,0.3-0.71,0.57c-0.19,0.27-0.28,0.64-0.28,1.11v3.53c0,0.08-0.03,0.15-0.1,0.21c-0.07,0.05-0.16,0.08-0.26,0.08
			h-0.75c-0.11,0-0.19-0.03-0.26-0.08s-0.1-0.12-0.1-0.21v-3.53c0-0.47-0.09-0.84-0.27-1.11s-0.42-0.46-0.7-0.57
			c-0.29-0.11-0.59-0.16-0.91-0.16c-0.28,0-0.56,0.06-0.85,0.16c-0.29,0.11-0.53,0.3-0.71,0.57c-0.19,0.27-0.28,0.63-0.28,1.1v3.54
			c0,0.08-0.03,0.15-0.1,0.21s-0.16,0.08-0.26,0.08H8.45z"/>
	</g>
</g>
</svg>
