<?xml version="1.0" encoding="utf-8"?>
<!-- Generator: Adobe Illustrator 26.0.0, SVG Export Plug-In . SVG Version: 6.00 Build 0)  -->
<svg version="1.1" xmlns="http://www.w3.org/2000/svg" xmlns:xlink="http://www.w3.org/1999/xlink" x="0px" y="0px"
	 viewBox="0 0 103.12 122.88" style="enable-background:new 0 0 103.12 122.88;" xml:space="preserve">
<style type="text/css">
	.st0{fill:#BBBBBB;stroke:#000000;stroke-width:0.25;stroke-miterlimit:10;}
	.st1{fill:#2D2D2D;}
	.st2{stroke:#000000;stroke-width:0.25;stroke-miterlimit:10;}
	.st3{fill:#ACACAC;}
	.st4{fill:#ADADAD;}
	.st5{fill:#3F3F3F;}
	.st6{fill:#818181;}
	.st7{fill:#848484;}
	.st8{fill:#3A3A3A;}
	.st9{fill:#A1A1A1;}
	.st10{fill:#A5A5A5;}
	.st11{fill:#474747;}
	.st12{fill:#828282;}
	.st13{fill:#3E3E3E;}
	.st14{fill:#535353;}
	.st15{fill:#858585;}
	.st16{fill:#383838;}
	.st17{fill:#2C2C2C;}
	.st18{fill:#2E2E2E;}
</style>
<g id="Layer_1">
	<path d="M87.15,104.18H70.47c-1.1,0-1.98,0.9-1.98,2c0,1.11,0.89,2,1.98,2h16.68c1.1,0,1.98-0.9,1.98-2
		C89.13,105.07,88.24,104.18,87.15,104.18z"/>
	<path d="M15.16,77.06c0,1.11,0.89,2,1.98,2h70c1.1,0,1.98-0.9,1.98-2c0-1.11-0.89-2-1.98-2h-70
		C16.04,75.06,15.16,75.96,15.16,77.06z"/>
	<path d="M16.82,64.5h30.13c1.1,0,1.98-0.9,1.98-2c0-1.11-0.89-2-1.98-2H16.82c-1.1,0-1.98,0.9-1.98,2
		C14.84,63.61,15.73,64.5,16.82,64.5z"/>
	<path d="M101.12,0H2C0.89,0,0,0.9,0,2v118.18c0,0.82,0.49,1.51,1.18,1.83c0.36,0.52,0.97,0.87,1.65,0.88h86.43
		c0.09,0,0.17-0.01,0.26-0.02c4.19-0.24,7.42-1.46,9.72-3.64c2.3-2.2,3.58-5.26,3.86-9.19c0.01-0.1,0.02-0.2,0.02-0.31V2
		C103.12,0.89,102.22,0,101.12,0z M99.13,109.68c-0.2,2.94-1.07,5.17-2.64,6.66c-1.59,1.51-3.99,2.37-7.2,2.55H3.99V3.99h95.14
		V109.68z"/>
	<path d="M87.32,89.62h-70.5c-1.1,0-1.98,0.9-1.98,2c0,1.11,0.89,2,1.98,2h70.5c1.1,0,1.98-0.9,1.98-2
		C89.3,90.51,88.41,89.62,87.32,89.62z"/>
	<path d="M52.66,62.5c0,1.11,0.89,2,1.98,2h32.5c1.1,0,1.98-0.9,1.98-2c0-1.11-0.89-2-1.98-2h-32.5
		C53.54,60.5,52.66,61.4,52.66,62.5z"/>
</g>
<g id="Capa_2">
	<g>
		<path class="st0" d="M35.42,55.39c0.4,0.5,0.96,0.33,1.46,0.33c9.65,0.01,19.3,0.01,28.96,0c0.5,0,1.07,0.18,1.45-0.34
			c-0.16-0.51-0.58-0.7-1.05-0.79c-1.64-0.31-2.1-1.52-2.13-2.93c-0.07-3.09-0.67-6.15-0.59-9.25c-0.13-0.3-0.26-0.59-0.57-0.75
			c-0.84-0.54-1.78-0.66-2.74-0.66c-6-0.02-12.01-0.03-18.01,0.01c-0.97,0.01-1.99-0.03-2.74,0.79c-0.3,0.52-0.4,1.09-0.33,1.66
			c0.32,2.76-0.68,5.43-0.54,8.2c0.07,1.45-0.58,2.69-2.29,2.98C35.88,54.71,35.57,54.97,35.42,55.39z"/>
		<path class="st1" d="M62,21.37c0.28-1.58,0.47-3.17,0.41-4.78c-0.04-0.99-0.19-1.95-0.6-2.84c-0.38-0.84-0.68-1.67-0.89-2.58
			c-0.21-0.94-1.13-1.51-1.76-2.2c-0.7-0.77-1.74-1.12-2.61-1.69c-0.72-0.47-0.8,0.36-1.16,0.62c-0.83,0.83-2.16-0.14-2.95,0.82
			c-1.04,0.92-2.09-0.05-3.13,0.02c-0.12,0.01-0.23,0-0.35,0c0.03,0,0.05,0,0.1,0c0.26,0,0.49,0.01,0.72-0.02
			c0.52-0.05,1.13-0.08,1.06-0.8c-0.06-0.59-0.61-0.57-1.08-0.58c-0.34,0-0.69,0.05-1.02-0.12c-0.46-0.02-0.96,0.06-1.36-0.1
			c-0.79-0.32-1.32-0.33-1.46,0.65c-0.05,0.36-0.33,0.41-0.63,0.42c-0.29,0.01-0.58,0.04-0.86,0c-1.24-0.14-2.17,0.04-2.47,1.55
			c-0.11,0.58-0.84,1.04-1.28,1.55c-0.27,1.27-0.34,2.55-0.16,3.82c0.38,2.53-0.31,5.11,0.35,7.63c0.04,0.33,0.19,0.6,0.48,0.79
			c1.08-0.18,1.26-1.06,1.42-1.89c0.16-0.79,0.14-1.6,0.19-2.4c0.01-0.11,0.01-0.23,0.03-0.34c0.46-3.61,0.99-4.21,4.61-4.53
			c2.36-0.21,4.74-0.23,7.11,0.09c3.81,0.12,4.64,0.97,4.73,4.94c0.03,1.2-0.03,2.41,0.05,3.61c0.04,0.68,0.05,1.4,0.81,1.77
			c0.97,0.19,1.48-0.25,1.45-1.19C61.72,22.82,61.84,22.09,62,21.37z"/>
		<path class="st2" d="M39.65,42.23c0.2-0.37,0.55-0.38,0.91-0.38c7.44,0.02,14.89,0.04,22.33,0.06c0.06,0,0.12,0.01,0.17,0.02
			c0.22-0.15,0.25-0.33,0.08-0.54c-1.05-1.45-2.41-2.37-4.23-2.74c-1.23-0.25-2.51-0.46-3.54-1.3c-0.5-0.43-1.05-0.43-1.6-0.13
			c-1.04,0.58-2.19,0.62-3.33,0.66c-0.67,0.33-1.17-0.14-1.71-0.37c-0.57-0.24-1.1-0.64-1.73-0.16c-0.82,0.71-1.81,1.05-2.84,1.26
			c-3.19,0.65-5.28,2.57-6.48,5.48c-0.49,1.18-0.96,2.36-1.72,3.4c-0.55,0.75-0.48,1.5-0.11,2.28c0.1,0.76,0.3,1.49,1,1.93
			c0.64,0.4,1.31,0.87,2.1,0.49c0.75-0.36,0.47-1.1,0.5-1.7C39.58,47.75,39.23,44.98,39.65,42.23z"/>
		<path class="st1" d="M42.41,29.72c0.84,0.62,0.85,1.68,1.28,2.51c0.79,1.48,1.93,2.51,3.26,3.43c0.44,0.41,0.55,1.11,1.19,1.35
			c1,0.17,2.02,0.23,3.02,0.37c1.73,0.24,3.35,0.02,4.27-1.76c2.5-1.33,3.64-3.59,4.27-6.18c0.07-0.15,0.08-0.31,0.01-0.47
			c-0.85-0.67-1.37,0.12-1.99,0.44c-0.94,0.49-1.88,1.03-2.82,0.01c-0.55-0.85-1.45-1.09-2.36-1.31c-1.01,0.04-2.02,0.15-3.03,0.12
			c-0.88-0.21-1.51,0.25-2.11,0.78c-0.57,0.5-1.18,0.87-1.98,0.57C44.4,29.47,43.35,28.43,42.41,29.72z"/>
		<path class="st2" d="M63.14,41.39c-0.03,0.18-0.05,0.36-0.08,0.54c0.02,0.19,0.04,0.38,0.05,0.58c0.36,2.68,0.04,5.38,0.17,8.06
			c0.04,0.74-0.41,1.78,0.72,2.03c1.03,0.23,1.92-0.34,2.6-1.08c0.34-0.37,0.45-0.92,0.62-1.41c0.78-1.06,0.76-2.11,0-3.17
			C65.9,45.07,64.84,43,63.14,41.39z"/>
		<path class="st3" d="M39.65,42.23c-0.55,0.44-0.32,1.06-0.33,1.6c-0.03,2.06-0.01,4.11-0.01,6.17c0,0.56,0,1.12,0,1.75
			c-1.65-0.07-2.48-1.14-3.46-1.97c-0.62,0.99-0.78,2.13-1.04,3.22c-0.21,0.86,0.06,1.67,0.61,2.38c0.81,0,1.62,0.01,2.43-0.01
			c1.37-0.03,1.28-0.05,1.45-1.31C39.83,50.13,39.57,46.18,39.65,42.23z"/>
		<path class="st4" d="M67.22,50.11c-0.97,1.02-2.15,1.68-3.46,2.06c-0.52-0.4-0.35-0.89-0.36-1.32c-0.02-2.23,0-4.46-0.02-6.69
			c0-0.56,0.17-1.15-0.27-1.65c-0.01,2.88,0,5.75-0.03,8.63c-0.01,1.21,0.5,2.35,0.4,3.58c-0.04,0.5,0.39,0.65,0.84,0.65
			c0.99,0.01,1.97,0.01,2.96,0.01c0.72-1.16,0.39-2.4,0.22-3.6C67.44,51.22,67.29,50.67,67.22,50.11z"/>
		<path class="st5" d="M41.37,22.81c0.02-0.8,0.1-1.6-0.23-2.37c-0.1-0.25-0.15-0.59-0.06-0.84c0.69-2.02,0.03-3.94-0.31-5.9
			c-0.14-0.78-0.06-1.6-0.09-2.4c-0.68,0.88-0.59,1.99-0.62,2.96c-0.11,2.82-0.01,5.65,0.01,8.48
			C40.47,23.16,40.91,23.17,41.37,22.81z"/>
		<path class="st6" d="M55.43,35.63c-2.08,1.09-4.24,1.37-6.51,0.71c-0.27-0.08-0.57-0.05-0.86-0.07c-0.39,0.83,0.35,0.99,0.8,1.32
			c0.54,0.39,1.18,0.64,1.6,1.18c1,0.52,1.88-0.07,2.75-0.36c0.76-0.25,1.45-0.69,2.17-1.05C55.39,36.78,55.41,36.21,55.43,35.63z"
			/>
		<path class="st7" d="M59.59,29.04c0.04,0.14,0.07,0.27,0.11,0.41c0.43-0.02,0.79-0.14,0.99-0.56c0.76-1.6,1.54-3.22,1.66-5
			c0.06-0.83-0.22-1.68-0.35-2.52c-0.39,0.88-1.15,1.63-0.88,2.73c0.02,0.1-0.3,0.29-0.47,0.43C59.45,25.84,59.03,27.33,59.59,29.04
			z"/>
		<path class="st8" d="M52.94,9.25c1.57-0.31,1.57-0.31,2.45-1.35c-0.11-0.02-0.23-0.02-0.34-0.06c-2.05-0.68-4.13-1.12-6.3-0.61
			c0.47,0.57,1.36,0.03,1.94,0.81c-0.81,0.31-1.57,0.11-2.3,0.18c-0.04,0.34,0.14,0.59,0.44,0.6C50.22,8.85,51.54,9.43,52.94,9.25z"
			/>
		<path class="st9" d="M40.38,25.87c0.23,1.32,0.91,2.42,1.65,3.51c0.74,0.1,0.78-0.5,0.97-0.95c0.36-1.17,0.03-2.27-0.36-3.36
			c-0.18-0.28-0.47-0.41-0.76-0.55C40.65,24.16,40.5,25,40.38,25.87z"/>
		<path class="st10" d="M50.46,38.77c0.36-0.26,0.08-0.45-0.07-0.67c-0.58-0.86-1.65-1.1-2.33-1.83c-0.31-0.31-0.71-0.46-1.11-0.6
			c0.02,0.56,0.04,1.13,0.06,1.69C48.18,37.78,49.13,38.73,50.46,38.77z"/>
		<path class="st6" d="M40.38,25.87c0.37-0.43,0.46-1.24,1.34-1c0.39-0.58,0.15-1.03-0.31-1.43c-0.01-0.21-0.03-0.42-0.04-0.63
			c-0.43-0.02-0.87-0.05-1.3-0.07C39.88,23.81,39.95,24.86,40.38,25.87z"/>
		<path class="st11" d="M42.43,28.26c-0.04,0.4,0.07,0.86-0.4,1.11c0.13,0.12,0.25,0.23,0.38,0.35c0.38-0.2,0.72-0.24,1.07,0.13
			c0.48,0.5,1.06,0.84,1.78,0.9C45.27,29.12,43.99,27.99,42.43,28.26z"/>
		<path class="st3" d="M42.43,28.26c0.94,0.83,1.88,1.66,2.83,2.48c0.82,0.36,1.48,0.25,2.1-0.48c0.46-0.55,0.93-1.17,1.74-1.3
			c0.69-0.1,1.28-0.42,1.91-0.71c1.16-0.53,1.57-1.25,1.24-2.47c-0.41-1.5-0.02-2.85,0.88-4.09c0.71-1.18,1.94-0.89,3.01-1.05
			c1.89-1.35,2.45-4.34,1.34-6.26c-0.71-1.23-1.89-0.54-2.79-0.94c-2.27-0.01-4.53-0.08-6.8-0.01c-1.15,0.04-2.29,0.31-3.43,0.5
			c-1.11,0.19-1.74,0.88-1.94,1.95c-0.19,1.02-0.32,2.04-0.48,3.06c-0.11,2.07-0.36,4.14,0.03,6.21
			C41.9,26.23,42.53,27.2,42.43,28.26z"/>
		<path class="st12" d="M54.69,13.45c0.14,0.09,0.28,0.23,0.44,0.26c1.63,0.28,1.76,0.35,1.96,1.91c0.1,0.73,0.04,1.48,0.04,2.22
			c0,1.18-0.69,1.81-1.74,2.15c0.02,0.68,1.06,0.78,0.88,1.56c1.84,2.32,0.67,4.24-0.84,6.11c-0.57,0.71-0.83,1.51-0.74,2.41
			c1.11,1.22,1.23,1.21,2.58,0.65c0.93-0.38,1.45-1.25,2.32-1.67c0.78-1.41,1.14-2.91,1.06-4.52c-0.58-0.51-0.31-1.19-0.33-1.8
			c-0.08-2.07,0.15-4.14-0.33-6.2c-0.47-2.01-1.48-3-3.55-3.11C55.86,13.39,55.27,13.44,54.69,13.45z"/>
		<path class="st13" d="M52.94,9.25c-0.69-0.62-1.51-0.71-2.41-0.71c-0.72,0-1.51,0.3-2.14-0.32c-0.63,0.08-1.23-0.13-2.03-0.34
			c0.51,0.94,1.19,1.3,1.92,1.33c1.17,0.04,2.28,0.3,3.39,0.62C52.29,10.01,52.68,9.79,52.94,9.25z"/>
		<path class="st14" d="M42.07,25.16c-0.01-2.07-0.02-4.14-0.03-6.21c-0.57,0.84-0.2,1.79-0.32,2.69c-0.08,0.6,0.26,1.28-0.32,1.8
			c-0.09,0.52,0.12,0.97,0.31,1.43C41.84,24.97,41.96,25.07,42.07,25.16z"/>
		<path class="st3" d="M54.69,30.06c1-0.81,1.49-2.01,2.19-3.03c0.42-0.61,0.96-1.14,1.27-1.83c0.58-1.29,0.51-1.74-0.46-2.76
			c-0.32-0.33-0.61-0.69-0.91-1.03c-0.64-1.08-1.65-0.58-2.53-0.56c-1.65,0.66-2.1,2.19-2.26,3.61c-0.18,1.48,0.1,3.04,0.65,4.5
			C53.52,28.96,54.04,29.63,54.69,30.06z"/>
		<path class="st15" d="M52.63,28.97c0.23-0.48,0.84-0.85,0.39-1.51c-1.39-2.07-0.46-3.86,0.69-5.63c0.09-0.14,0.19-0.28,0.28-0.43
			c-0.45-0.46-0.91-0.37-1.37-0.02c-1.24,1.3-1.25,2.93-0.99,4.5c0.15,0.89,0.02,1.26-0.85,1.47c-0.58,0.14-1.41,0.2-1,1.22
			c0.01,0.03-0.46,0.25-0.71,0.38C50.27,28.97,51.45,28.97,52.63,28.97z"/>
		<path class="st6" d="M50.96,29.69c-1.57,0-2.2,0.48-2.42,1.86c-0.11,0.66,0.24,0.94,0.92,0.75c0.05-0.02,0.11-0.05,0.16-0.07
			c1.26-0.67,2.45-0.57,3.57,0.31c0.19,0.15,0.41,0.24,0.62,0.06c0.2-0.16,0.2-0.41,0.15-0.64C53.66,30.5,52.57,29.69,50.96,29.69z"
			/>
		<path class="st16" d="M52.64,21.38c0.46,0.01,0.91,0.01,1.37,0.02c0.93,0.01,1.85,0.01,2.78,0.02c0.87-0.19,0.99-0.44,0.55-0.98
			c-0.54-0.66-1.29-0.33-1.94-0.46C54.36,20.24,53.11,20.07,52.64,21.38z"/>
		<path class="st8" d="M44.7,21.38c1.46,0,2.74,0,4.02,0c0.22,0,0.5,0.01,0.59-0.25c0.11-0.34-0.14-0.55-0.4-0.67
			c-0.98-0.44-2.01-0.57-3.07-0.46C45.14,20.08,44.88,20.58,44.7,21.38z"/>
		<path class="st17" d="M47.94,23.46c-0.01-0.48-0.59-1.03-1.04-0.93c-0.56,0.13-0.94,0.5-0.9,1.09c0.04,0.51,0.38,0.83,0.93,0.83
			C47.42,24.45,47.94,23.93,47.94,23.46z"/>
		<path class="st18" d="M54.09,23.43c-0.03,0.46,0.48,1,0.98,1.02c0.55,0.02,0.9-0.28,0.95-0.79c0.07-0.6-0.32-0.97-0.86-1.13
			C54.73,22.41,54.12,22.95,54.09,23.43z"/>
	</g>
</g>
<g id="Capa_3">
	<path class="st8" d="M51.08,30.52h1.42c0,0.47-0.64,0.86-1.42,0.86c-0.78,0-1.42-0.39-1.42-0.86c0,0,0,0,0,0L51.08,30.52z"/>
</g>
</svg>
